<?xml version="1.0" encoding="UTF-8"?>
<svg width="110px" height="110px" viewBox="0 0 110 110" version="1.1" xmlns="http://www.w3.org/2000/svg" xmlns:xlink="http://www.w3.org/1999/xlink">
    <title>00.ALL_01.Element_02.Image_01.Default_profile18@1x</title>
    <defs>
        <circle id="path-1" cx="55" cy="55" r="55"></circle>
    </defs>
    <g id="Page-1" stroke="none" stroke-width="1" fill="none" fill-rule="evenodd">
        <g id="프로필이미지" transform="translate(-156.000000, -167.000000)">
            <g id="18" transform="translate(156.000000, 167.000000)">
                <mask id="mask-2" fill="white">
                    <use xlink:href="#path-1"></use>
                </mask>
                <use id="Oval" fill="#1EB13E" xlink:href="#path-1"></use>
                <g id="Group-105" mask="url(#mask-2)">
                    <g transform="translate(9.000000, 12.000000)">
                        <path d="M36.551,2.656 C37.478,3.062 37.605,3.152 38.462,3.84 C39.189,4.425 39.853,5.139 40.468,5.865 C42.443,8.198 43.994,15.52 41.195,17.13 C38.711,18.558 37.278,13.783 36.2,12.277 C33.782,8.901 32.055,11.982 29.62,14.168 C27.658,15.939 24.788,15.625 23.208,13.464 C21.626,11.303 21.915,8.124 23.86,6.34 C27.405,3.091 31.944,0.641 36.551,2.656" id="Fill-21" stroke="#000000" stroke-width="1.6" fill="#FFFFFF" fill-rule="evenodd"></path>
                        <path d="M30.6717,10.9406 C30.3317,10.7866 29.9747,10.7966 29.6357,10.8716 C30.0617,10.6636 30.4187,10.2846 30.6057,9.7656 C30.9857,8.7206 30.5287,7.5466 29.5997,7.1286 C29.1647,6.9376 28.7057,6.9646 28.2947,7.1336 C28.6637,6.9136 28.9797,6.5746 29.1457,6.1156 C29.5257,5.0716 28.8317,3.9646 27.8957,3.5516 C27.8127,3.5106 27.7227,3.5176 27.6327,3.4966 C25.4787,4.7636 24.2047,6.0296 23.8607,6.3396 C21.9147,8.1216 21.6257,11.3036 23.2097,13.4636 C24.7887,15.6236 27.6577,15.9366 29.6197,14.1666 C30.1977,13.6486 30.9647,12.7106 31.7817,12.2056 C31.7047,11.4946 31.3117,11.2186 30.6717,10.9406" id="Fill-23" stroke="none" fill="#653109" fill-rule="evenodd"></path>
                        <path d="M66.6704,5.3628 C62.7524,5.6958 60.7624,8.0168 58.7414,11.3338 C57.6314,13.1548 55.4154,17.5468 57.9684,19.1668 C60.7554,20.9358 62.6874,16.5088 64.3254,15.3108 C66.4864,13.7308 68.7304,16.4458 70.8974,19.3708 C72.6404,21.7378 75.9604,22.2368 78.3164,20.4818 C80.6734,18.7288 81.1914,15.4028 79.4704,13.0268 C76.1454,8.4378 72.1754,4.8948 66.6704,5.3628" id="Fill-25" stroke="#000000" stroke-width="1.6" fill="#FFFFFF" fill-rule="evenodd"></path>
                        <path d="M70.5671,15.7773 C70.9911,15.7173 71.3921,15.8293 71.7541,16.0023 C71.3291,15.6693 71.0261,15.1793 70.9531,14.5973 C70.8021,13.4223 71.6291,12.3543 72.7881,12.1933 C73.3291,12.1233 73.8391,12.2813 74.2581,12.5703 C73.9001,12.2413 73.6331,11.8053 73.5681,11.2893 C73.4171,10.1153 74.5551,9.1453 75.7201,8.9913 C75.8251,8.9733 75.9251,9.0053 76.0311,9.0093 C78.1251,10.9183 79.1651,12.6113 79.4701,13.0263 C81.1921,15.4003 80.6731,18.7293 78.3141,20.4823 C75.9601,22.2353 72.6401,21.7353 70.8971,19.3703 C70.3831,18.6763 69.6701,17.8833 68.8831,17.1343 C69.1581,16.4313 69.7711,15.8773 70.5671,15.7773" id="Fill-27" stroke="none" fill="#653109" fill-rule="evenodd"></path>
                        <path d="M40.403,119.1075 C40.043,119.1075 39.682,119.1025 39.321,119.0935 C26.127,118.7915 16.855,113.9965 12.509,105.2305 C8.48,97.1075 8.76,88.1485 9.454,81.2505 C9.637,79.4235 10.097,77.3775 10.585,75.2125 C11.349,71.8215 12.137,68.3135 11.869,65.5135 C11.577,62.4475 10.701,60.5455 9.593,58.1375 C9.089,57.0445 8.568,55.9135 8.043,54.5465 C5.423,47.7235 8.176,37.9485 9.481,34.0625 C11.877,26.9315 16.019,21.0565 20.845,17.9475 C27.704,13.5285 35.265,11.0955 42.135,11.0955 C43.099,11.0955 44.058,11.1445 44.986,11.2405 L47.728,11.5195 C55.238,12.2655 63.364,16.4335 70.018,22.9505 C74.12,26.9685 76.994,33.5565 77.903,41.0265 C78.842,48.7205 77.675,56.1525 74.434,63.1145 C74.058,63.9255 73.579,64.7535 73.115,65.5535 L72.834,66.0415 C72.954,66.9105 73.206,67.7735 73.471,68.6825 C73.631,69.2315 73.792,69.7835 73.925,70.3395 C74.301,71.9205 74.75,73.5275 75.185,75.0795 C76.079,78.2795 77.005,81.5865 77.382,84.9725 C78.085,91.2855 77.064,100.1805 73.201,105.8175 C68.686,112.4055 60.13,117.0235 49.73,118.4855 C48.507,118.6585 47.169,118.7905 45.862,118.8665 L43.306,119.0145 L43.114,118.2555 L43.16,119.0245 C42.242,119.0785 41.322,119.1075 40.403,119.1075" id="Fill-29" stroke="#000000" stroke-width="1.5" fill="#02A0F4" fill-rule="evenodd"></path>
                        <path d="M44.9053,12.0068 L45.0523,12.0198 C44.9653,12.0118 44.9053,12.0068 44.9053,12.0068" id="Fill-33" stroke="none" fill="#02A0F4" fill-rule="evenodd"></path>
                        <path d="M47.0629,69.2561 C46.2329,69.2561 45.4179,69.2271 44.6289,69.1721 L44.3399,69.1521 C39.2399,68.7961 36.4299,68.6001 31.2319,67.9121 L27.8259,67.4611 C17.8389,66.1261 10.3409,60.7981 7.7689,53.2091 C6.7059,50.0791 6.6409,46.3531 7.5849,42.7201 C8.5469,39.0311 9.2159,37.4541 11.5279,34.7711 C11.7729,34.4881 12.1339,34.2231 12.5169,33.9431 C13.0159,33.5781 13.7009,33.0781 13.7609,32.7181 L13.8619,32.1211 L13.9889,32.1351 C14.1169,31.6281 14.2849,31.1381 14.4379,30.6891 C14.5259,30.4331 14.6099,30.1861 14.6809,29.9531 C15.3739,27.6791 16.3679,25.6111 17.6389,23.8051 C20.7429,19.3971 26.7299,16.8211 31.2059,15.4351 C34.1599,14.5191 37.3999,13.9881 40.5729,13.8941 C40.8439,13.8861 41.1209,13.8821 41.4019,13.8821 C45.3109,13.8821 50.0739,14.6441 53.5369,15.8221 C55.5409,16.5051 57.4309,17.3311 59.1539,18.2781 C64.0329,20.9641 67.6209,24.7021 69.5299,29.0861 C70.4119,31.1121 70.9709,33.3381 71.1899,35.7031 C71.2839,36.7391 71.3679,38.0671 71.4189,39.3471 C71.4519,40.1951 71.5169,41.8541 71.5689,42.4291 C71.7329,44.2461 71.7879,45.2061 71.8379,46.0861 C71.8789,46.7661 71.9149,47.3981 71.9979,48.3501 C72.3059,51.9101 70.5289,56.4011 68.7629,59.4171 C64.5149,66.6711 54.7679,69.2561 47.0639,69.2561 L47.0629,69.2561 Z" id="Fill-35" stroke="none" fill="#FFFFFF" fill-rule="evenodd"></path>
                        <path d="M41.4061,13.2402 C41.1171,13.2402 40.8331,13.2442 40.5541,13.2522 C37.3221,13.3472 34.0231,13.8892 31.0151,14.8212 C26.4441,16.2372 20.3221,18.8802 17.1141,23.4352 C15.8041,25.2952 14.7791,27.4252 14.0671,29.7652 C13.9971,29.9932 13.9141,30.2342 13.8291,30.4842 C13.7251,30.7872 13.6151,31.1092 13.5141,31.4452 L13.3281,31.4252 L13.1281,32.6122 C13.0441,32.7622 12.4551,33.1932 12.1381,33.4252 C11.7251,33.7272 11.3351,34.0122 11.0421,34.3512 C8.6631,37.1102 7.9381,38.8202 6.9651,42.5582 C5.9891,46.3092 6.0581,50.1652 7.1601,53.4162 C9.8131,61.2402 17.5071,66.7292 27.7411,68.0992 L29.5981,68.3432 L31.1471,68.5472 C36.3391,69.2372 39.1371,69.4322 44.2161,69.7872 L44.5841,69.8132 C45.3941,69.8692 46.2281,69.8982 47.0611,69.8982 C62.1941,69.8982 67.9221,62.1242 69.3171,59.7412 C71.1341,56.6382 72.9601,52.0012 72.6371,48.2942 C72.5551,47.3512 72.5191,46.7252 72.4801,46.0512 C72.4291,45.1832 72.3731,44.2002 72.2081,42.3712 C72.1581,41.8152 72.0891,40.0692 72.0641,39.4122 L72.0601,39.3222 C72.0081,38.0162 71.9241,36.6752 71.8281,35.6442 C71.6031,33.2102 71.0281,30.9172 70.1191,28.8292 C68.1521,24.3142 64.4671,20.4712 59.4631,17.7162 C57.7111,16.7522 55.7871,15.9102 53.7441,15.2142 C50.2221,14.0152 45.3791,13.2402 41.4061,13.2402 M41.4061,14.5242 C45.2041,14.5242 49.8631,15.2492 53.3301,16.4302 C55.2311,17.0782 57.0841,17.8732 58.8431,18.8412 C63.1861,21.2312 66.9391,24.7442 68.9411,29.3422 C69.8271,31.3752 70.3461,33.5562 70.5501,35.7622 C70.6481,36.8302 70.7291,38.1722 70.7771,39.3722 C70.8031,40.0412 70.8741,41.8732 70.9291,42.4862 C71.2191,45.7112 71.1671,46.2212 71.3571,48.4062 C71.6521,51.7872 69.9361,56.1412 68.2091,59.0922 C64.1361,66.0472 54.8471,68.6142 47.0611,68.6142 C46.2461,68.6142 45.4471,68.5862 44.6731,68.5312 C39.3631,68.1602 36.5911,67.9752 31.3161,67.2742 C30.1811,67.1232 29.0341,66.9762 27.9121,66.8262 C19.7911,65.7392 11.2351,61.4342 8.3761,53.0032 C7.2781,49.7652 7.3531,46.1672 8.2081,42.8812 C9.1161,39.3912 9.7351,37.8332 12.0151,35.1902 C12.5771,34.5392 14.2341,33.7732 14.3941,32.8262 L14.4961,32.8372 C14.6551,31.8902 15.0521,30.9382 15.2951,30.1392 C15.9401,28.0202 16.8861,25.9882 18.1641,24.1752 C21.0511,20.0752 26.6601,17.5142 31.3951,16.0482 C34.2951,15.1502 37.4331,14.6282 40.5911,14.5362 C40.8581,14.5282 41.1291,14.5242 41.4061,14.5242" id="Fill-37" stroke="none" fill="#000000" fill-rule="evenodd"></path>
                        <path d="M45.7327,48.5825 C45.2497,53.3295 48.6787,57.5655 53.3877,58.0445 C58.0967,58.5245 62.3067,55.0645 62.7897,50.3185 C63.2717,45.5765 59.8447,41.3405 55.1367,40.8605 C50.4277,40.3815 46.2157,43.8405 45.7327,48.5825" id="Fill-39" stroke="none" fill="#FABDB9" fill-rule="evenodd"></path>
                        <path d="M8.6689,45.1268 C8.3929,49.8898 10.6219,53.9698 14.4789,54.1168 C19.2069,54.2968 22.7129,50.0488 23.0809,46.3718 C23.5539,41.6298 21.7349,37.0488 17.0119,36.7748 C12.2839,36.5008 8.7409,41.2258 8.6689,45.1268" id="Fill-41" stroke="none" fill="#FABDB9" fill-rule="evenodd"></path>
                        <path d="M31.9622,43.1577 C31.8942,43.7767 32.4912,44.3477 33.3072,44.4377 C34.1232,44.5267 34.8342,44.0997 34.9022,43.4807 C34.9692,42.8667 34.3682,42.2897 33.5532,42.2007 C32.7372,42.1107 32.0292,42.5437 31.9622,43.1577" id="Fill-43" stroke="none" fill="#000000" fill-rule="evenodd"></path>
                        <path d="M41.3377,50.1064 C40.9497,52.3834 38.6327,57.7034 33.1897,56.4744 C27.1507,55.6134 26.8187,50.3294 26.8467,48.3024" id="Fill-45" stroke="none" fill="#D04A4C" fill-rule="evenodd"></path>
                        <path d="M34.7581,57.2988 C34.2061,57.2988 33.6361,57.2328 33.0471,57.0998 C28.5811,56.4658 26.1331,53.3348 26.2051,48.2938 C26.2101,47.9418 26.4961,47.6608 26.8471,47.6608 L26.8561,47.6608 C27.2111,47.6658 27.4941,47.9578 27.4891,48.3118 C27.4451,51.3628 28.4151,55.1438 33.2791,55.8378 C34.9221,56.2038 36.3411,55.9798 37.5501,55.1708 C39.5801,53.8108 40.5011,51.1938 40.7041,49.9988 C40.7651,49.6488 41.1001,49.4178 41.4451,49.4728 C41.7951,49.5328 42.0291,49.8648 41.9711,50.2138 C41.7171,51.6988 40.6521,54.6388 38.2631,56.2378 C37.2091,56.9438 36.0351,57.2988 34.7581,57.2988" id="Fill-47" stroke="none" fill="#000000" fill-rule="evenodd"></path>
                        <path d="M29.0536,49.2953 L28.9906,49.7433 C28.9366,50.1273 29.2296,50.4853 29.6466,50.5443 L38.0006,51.7223 C38.4176,51.7813 38.7986,51.5173 38.8526,51.1333 L38.8986,50.8073 C38.9456,50.4723 38.7326,50.1503 38.3846,50.0393 C37.4226,49.7323 35.5556,49.0623 34.7336,48.2553 C34.5026,48.0273 34.1626,47.9283 33.8586,48.0503 C33.1006,48.3543 31.6136,48.8193 29.8216,48.7013 C29.4356,48.6753 29.1036,48.9413 29.0536,49.2953" id="Fill-49" stroke="none" fill="#FFFFFF" fill-rule="evenodd"></path>
                        <path d="M39.5677,51.1022 C36.8007,51.1022 33.8587,49.6352 32.4027,48.0432 C32.1157,47.7282 32.1367,47.2422 32.4507,46.9552 C32.7637,46.6662 33.2507,46.6892 33.5387,47.0022 C35.1267,48.7402 39.2357,50.4372 41.8017,49.0482 C42.4797,48.6802 42.9297,48.2762 43.0517,48.0722 C42.8707,47.7432 42.9527,47.3252 43.2597,47.0902 C43.5947,46.8342 44.0797,46.8962 44.3397,47.2342 C44.5827,47.5522 44.6707,47.9432 44.5867,48.3342 C44.3847,49.2772 43.2147,50.0352 42.5347,50.4022 C41.6307,50.8942 40.6107,51.1022 39.5677,51.1022" id="Fill-51" stroke="none" fill="#000000" fill-rule="evenodd"></path>
                        <path d="M29.3516,49.6248 C27.8876,49.6248 26.4206,49.1098 25.3446,47.9228 C24.1436,46.5988 23.8486,45.3558 24.5556,44.5978 C24.8456,44.2858 25.3346,44.2688 25.6446,44.5608 C25.9426,44.8388 25.9706,45.2978 25.7176,45.6108 C25.7236,45.8038 25.9846,46.3348 26.4856,46.8868 C28.0406,48.6028 30.9206,48.3328 32.4556,46.9498 C32.7686,46.6668 33.2566,46.6888 33.5446,47.0078 C33.8286,47.3238 33.8026,47.8118 33.4866,48.0958 C32.4206,49.0558 30.8896,49.6248 29.3516,49.6248" id="Fill-53" stroke="none" fill="#000000" fill-rule="evenodd"></path>
                        <path d="M28.9841,39.077 C28.9841,40.133 28.1281,40.99 27.0711,40.99 C26.0151,40.99 25.1581,40.133 25.1581,39.077 C25.1581,38.021 26.0151,37.164 27.0711,37.164 C28.1281,37.164 28.9841,38.021 28.9841,39.077" id="Fill-55" stroke="none" fill="#000000" fill-rule="evenodd"></path>
                        <path d="M46.2124,41.2488 C46.2124,42.3048 45.3564,43.1618 44.2994,43.1618 C43.2434,43.1618 42.3864,42.3048 42.3864,41.2488 C42.3864,40.1928 43.2434,39.3358 44.2994,39.3358 C45.3564,39.3358 46.2124,40.1928 46.2124,41.2488" id="Fill-57" stroke="none" fill="#000000" fill-rule="evenodd"></path>
                        <path d="M57.4664,24.2537 C58.1514,24.9067 58.1424,25.9737 57.5944,26.7447 C56.8364,27.8137 57.4594,28.3217 57.8304,28.5187 C57.8304,28.5187 59.5624,29.6177 60.3764,27.5917 C61.4174,25.0027 60.7534,22.3227 58.5534,21.1387 C56.3544,19.9557 50.6194,17.7157 48.0614,24.5567 C45.2744,32.0107 54.3124,38.1917 54.3124,38.1917 C54.3124,38.1917 58.8974,41.9167 56.9564,43.6667 C56.3264,44.2337 54.4034,42.5847 53.6554,44.2797 C52.9234,45.9367 55.7634,46.5787 56.0894,46.6707 C57.6994,47.1267 60.3124,47.3017 61.4354,43.7107 C62.5594,40.1187 55.9324,34.9507 55.9324,34.9507 C55.9324,34.9507 50.5674,30.8187 51.4714,26.8667 C52.1544,23.8827 55.2394,22.1797 57.4424,24.2317 C57.4514,24.2387 57.4584,24.2467 57.4664,24.2537" id="Fill-59" stroke="none" fill="#FFCD2C" fill-rule="evenodd"></path>
                        <path d="M57.4664,24.2537 C58.1514,24.9067 58.1424,25.9737 57.5944,26.7447 C56.8364,27.8137 57.4594,28.3217 57.8304,28.5187 C57.8304,28.5187 59.5624,29.6177 60.3764,27.5917 C61.4174,25.0027 60.7534,22.3227 58.5534,21.1387 C56.3544,19.9557 50.6194,17.7157 48.0614,24.5567 C45.2744,32.0107 54.3124,38.1917 54.3124,38.1917 C54.3124,38.1917 58.8974,41.9167 56.9564,43.6667 C56.3264,44.2337 54.4034,42.5847 53.6554,44.2797 C52.9234,45.9367 55.7634,46.5787 56.0894,46.6707 C57.6994,47.1267 60.3124,47.3017 61.4354,43.7107 C62.5594,40.1187 55.9324,34.9507 55.9324,34.9507 C55.9324,34.9507 50.5674,30.8187 51.4714,26.8667 C52.1544,23.8827 55.2394,22.1797 57.4424,24.2317 C57.4514,24.2387 57.4584,24.2467 57.4664,24.2537 Z" id="Stroke-61" stroke="#000000" stroke-width="1.5" fill="none"></path>
                        <path d="M102.0045,37.3544 C101.0755,37.5324 100.5055,38.4344 100.5475,39.3794 C100.6065,40.6884 99.8085,40.7784 99.3895,40.7424 C99.3895,40.7424 97.3375,40.7294 97.7505,38.5854 C98.2765,35.8454 100.2865,33.9504 102.7765,34.1464 C105.2675,34.3434 111.3015,35.5654 109.7475,42.7014 C108.0545,50.4774 97.1095,50.7804 97.1095,50.7804 C97.1095,50.7804 91.2375,51.4294 91.9225,53.9514 C92.1445,54.7694 94.6545,54.4244 94.3655,56.2544 C94.0835,58.0434 91.3485,57.0454 91.0245,56.9464 C89.4245,56.4584 87.1325,55.1914 88.1325,51.5634 C89.1335,47.9354 97.5025,47.1784 97.5025,47.1784 C97.5025,47.1784 104.2495,46.6094 105.6295,42.7974 C106.6715,39.9184 104.9995,36.8164 102.0365,37.3484 C102.0255,37.3504 102.0155,37.3524 102.0045,37.3544" id="Fill-63" stroke="none" fill="#FFCD2C" fill-rule="evenodd"></path>
                        <path d="M102.0045,37.3544 C101.0755,37.5324 100.5055,38.4344 100.5475,39.3794 C100.6065,40.6884 99.8085,40.7784 99.3895,40.7424 C99.3895,40.7424 97.3375,40.7294 97.7505,38.5854 C98.2765,35.8454 100.2865,33.9504 102.7765,34.1464 C105.2675,34.3434 111.3015,35.5654 109.7475,42.7014 C108.0545,50.4774 97.1095,50.7804 97.1095,50.7804 C97.1095,50.7804 91.2375,51.4294 91.9225,53.9514 C92.1445,54.7694 94.6545,54.4244 94.3655,56.2544 C94.0835,58.0434 91.3485,57.0454 91.0245,56.9464 C89.4245,56.4584 87.1325,55.1914 88.1325,51.5634 C89.1335,47.9354 97.5025,47.1784 97.5025,47.1784 C97.5025,47.1784 104.2495,46.6094 105.6295,42.7974 C106.6715,39.9184 104.9995,36.8164 102.0365,37.3484 C102.0255,37.3504 102.0155,37.3524 102.0045,37.3544 Z" id="Stroke-65" stroke="#000000" stroke-width="1.5" fill="none"></path>
                        <path d="M62.5903,18.839 C62.5903,18.839 66.3783,17.126 83.5473,22.146 C98.4083,26.491 100.5673,30.01 100.5673,30.01 C100.5673,30.01 89.3753,67.758 70.7353,61.876 C51.6983,55.868 62.5903,18.839 62.5903,18.839" id="Fill-67" stroke="none" fill="#FFCD2C" fill-rule="evenodd"></path>
                        <path d="M62.5903,18.839 C62.5903,18.839 66.3783,17.126 83.5473,22.146 C98.4083,26.491 100.5673,30.01 100.5673,30.01 C100.5673,30.01 89.3753,67.758 70.7353,61.876 C51.6983,55.868 62.5903,18.839 62.5903,18.839 Z" id="Stroke-69" stroke="#000000" stroke-width="1.5" fill="none"></path>
                        <path d="M66.1021,62.3329 C66.1021,62.3329 65.3241,67.3209 64.4671,68.4479 C63.6111,69.5739 63.0661,69.9369 61.4161,69.4529 C60.2371,69.1079 58.5311,68.9979 57.1161,72.9129 L76.4121,78.5889 C76.4121,78.5889 77.4461,76.5309 76.3731,74.9349 C75.3001,73.3399 74.0581,73.0379 73.4511,72.7739 C72.5031,72.3629 71.9371,72.0559 72.5021,70.0229 C73.0671,67.9909 74.2861,64.7399 74.2861,64.7399 L66.1021,62.3329 Z" id="Fill-71" stroke="none" fill="#FFCD2C" fill-rule="evenodd"></path>
                        <path d="M66.1021,62.3329 C66.1021,62.3329 65.3241,67.3209 64.4671,68.4479 C63.6111,69.5739 63.0661,69.9369 61.4161,69.4529 C60.2371,69.1079 58.5311,68.9979 57.1161,72.9129 L76.4121,78.5889 C76.4121,78.5889 77.4461,76.5309 76.3731,74.9349 C75.3001,73.3399 74.0581,73.0379 73.4511,72.7739 C72.5031,72.3629 71.9371,72.0559 72.5021,70.0229 C73.0671,67.9909 74.2861,64.7399 74.2861,64.7399 L66.1021,62.3329 Z" id="Stroke-73" stroke="#000000" stroke-width="1.5" fill="none"></path>
                        <polygon id="Fill-75" stroke="none" fill="#8C4120" fill-rule="evenodd" points="78.0177 95.8936 45.9217 86.4526 50.6537 70.3676 82.7487 79.8086"></polygon>
                        <polygon id="Stroke-77" stroke="#000000" stroke-width="1.5" fill="none" points="78.0177 95.8936 45.9217 86.4526 50.6537 70.3676 82.7487 79.8086"></polygon>
                        <polygon id="Fill-79" stroke="none" fill="#8C4120" fill-rule="evenodd" points="80.9305 103.4076 40.0885 91.3936 41.9105 85.1996 82.7525 97.2126"></polygon>
                        <polygon id="Stroke-81" stroke="#000000" stroke-width="1.5" fill="none" points="80.9305 103.4076 40.0885 91.3936 41.9105 85.1996 82.7525 97.2126"></polygon>
                        <polygon id="Fill-83" stroke="none" fill="#FFCD2C" fill-rule="evenodd" points="76.2817 91.8764 49.7887 84.0834 52.4667 74.9784 78.9597 82.7714"></polygon>
                        <polygon id="Stroke-85" stroke="#000000" stroke-width="1.5" fill="none" points="76.2817 91.8764 49.7887 84.0834 52.4667 74.9784 78.9597 82.7714"></polygon>
                        <path d="M64.4683,58.119 L63.4253,61.263 C63.4253,61.263 65.6453,63.099 69.2023,64.146 C71.3273,64.771 74.0543,65.651 77.2253,65.026 L78.1143,62.005 C78.1143,62.005 71.4553,61.784 64.4683,58.119" id="Fill-87" stroke="none" fill="#FFCD2C" fill-rule="evenodd"></path>
                        <path d="M64.4683,58.119 L63.4253,61.263 C63.4253,61.263 65.6453,63.099 69.2023,64.146 C71.3273,64.771 74.0543,65.651 77.2253,65.026 L78.1143,62.005 C78.1143,62.005 71.4553,61.784 64.4683,58.119 Z" id="Stroke-89" stroke="#000000" stroke-width="1.5" fill="none"></path>
                        <path d="M20.1068,67.2168 C21.0448,66.3178 22.7058,66.6258 23.3318,67.7838 C25.0809304,71.019887 29.3660958,77.0647523 35.3615765,79.009313 L35.7638,79.133 C39.1958,80.128 43.1658,79.769 47.5328,76.792 C50.0838,75.052 50.4878,73.411 54.0268,72.837 C56.0418,72.509 57.8498,73.404 59.0618,74.942 C60.2798,76.489 60.7028,77.983 60.5748,79.397 C60.1788,83.76 57.4758,84.452 53.7328,86.525 C48.4038,89.478 40.4468,89.922 34.4578,87.826 C22.0998,83.5008 15.5238,71.6078 20.1068,67.2168 Z" id="Combined-Shape" stroke="#000000" stroke-width="2.5" fill="none"></path>
                        <path d="M20.1068,67.2168 C21.0448,66.3178 22.7058,66.6258 23.3318,67.7838 C25.1198,71.0918 29.5578,77.3348 35.7638,79.1328 L35.7628,79.1348 C35.7628,79.1348 33.7598,80.5548 33.5798,83.6588 C33.3998,86.7618 34.4578,87.8258 34.4578,87.8258 C22.0998,83.5008 15.5238,71.6078 20.1068,67.2168" id="Fill-91-Copy" stroke="none" fill="#FFFFFF" fill-rule="evenodd"></path>
                        <path d="M32.3458,83.073 C32.5258,79.969 35.7628,79.134 35.7628,79.134 L35.7638,79.133 C39.1958,80.128 43.1658,79.769 47.5328,76.792 C50.0838,75.052 50.4878,73.411 54.0268,72.837 C56.0418,72.509 57.8498,73.404 59.0618,74.942 C60.2798,76.489 60.7028,77.983 60.5748,79.397 C60.1788,83.76 57.4758,84.452 53.7328,86.525 C48.4038,89.478 40.4468,89.922 34.4578,87.826 C34.4578,87.826 32.1658,86.177 32.3458,83.073" id="Fill-93-Copy" stroke="none" fill="#0183C6" fill-rule="evenodd"></path>
                        <path d="M89.5071,80.9603 C90.0191,84.7703 88.1961,89.9913 83.3721,89.6733 C80.6131,89.4923 77.6321,87.5253 76.3501,85.1023 C75.0331,82.6153 74.6091,78.7823 76.5891,76.5093 C77.4071,75.5713 78.4391,75.3693 79.5061,74.8713 C81.9401,73.7373 84.1721,72.8673 86.5291,74.8673 C88.2601,76.3373 89.2191,78.8163 89.5071,80.9603" id="Fill-97" stroke="#000000" stroke-width="1.2" fill="#0183C6" fill-rule="evenodd"></path>
                        <path d="M76.0905,32.3128 L79.1005,29.1808 C79.6615,28.5968 80.6485,28.9098 80.7705,29.7108 L81.4255,34.0048 C81.4735,34.3228 81.6755,34.5968 81.9645,34.7368 L85.8735,36.6318 C86.6025,36.9848 86.6095,38.0208 85.8865,38.3838 L82.0045,40.3338 C81.7165,40.4778 81.5185,40.7548 81.4745,41.0728 L80.8805,45.3758 C80.7695,46.1778 79.7875,46.5048 79.2175,45.9288 L76.1645,42.8398 C75.9385,42.6108 75.6145,42.5078 75.2975,42.5648 L71.0215,43.3288 C70.2245,43.4718 69.6095,42.6378 69.9815,41.9188 L71.9765,38.0598 C72.1235,37.7738 72.1215,37.4338 71.9695,37.1508 L69.9215,33.3198 C69.5395,32.6058 70.1425,31.7638 70.9415,31.8958 L75.2275,32.5998 C75.5455,32.6518 75.8675,32.5448 76.0905,32.3128" id="Fill-101" stroke="none" fill="#FFFFFF" fill-rule="evenodd"></path>
                        <path d="M76.0905,32.3128 L79.1005,29.1808 C79.6615,28.5968 80.6485,28.9098 80.7705,29.7108 L81.4255,34.0048 C81.4735,34.3228 81.6755,34.5968 81.9645,34.7368 L85.8735,36.6318 C86.6025,36.9848 86.6095,38.0208 85.8865,38.3838 L82.0045,40.3338 C81.7165,40.4778 81.5185,40.7548 81.4745,41.0728 L80.8805,45.3758 C80.7695,46.1778 79.7875,46.5048 79.2175,45.9288 L76.1645,42.8398 C75.9385,42.6108 75.6145,42.5078 75.2975,42.5648 L71.0215,43.3288 C70.2245,43.4718 69.6095,42.6378 69.9815,41.9188 L71.9765,38.0598 C72.1235,37.7738 72.1215,37.4338 71.9695,37.1508 L69.9215,33.3198 C69.5395,32.6058 70.1425,31.7638 70.9415,31.8958 L75.2275,32.5998 C75.5455,32.6518 75.8675,32.5448 76.0905,32.3128 Z" id="Stroke-103" stroke="#000000" stroke-width="1.5" fill="none"></path>
                    </g>
                </g>
            </g>
        </g>
    </g>
</svg>